<svg xmlns="http://www.w3.org/2000/svg" viewBox="15.979990844726558 146.33320207764666 543.0400085449219 296.6117991430565"> <svg xmlns="http://www.w3.org/2000/svg" xmlns:xlink="http://www.w3.org/1999/xlink" version="1.1" id="Layer_1" x="129.37759146167784" y="216.33320207764666" viewBox="67.64994812011719 814.8374633789062 1864.7109375 391.69989013671875" xml:space="preserve" height="66.43016743032143" width="316.2448155599728" preserveAspectRatio="xMinYMin" enable-background="new 0 0 2000 2000" style="overflow: visible;"><path class="st0" d="M1087.52,851.75c14.41,0.24,19.88-4.98,19.86-18.69c-0.02-13.25-5.7-18.45-20.42-18.21   c-154.67,2.49-971.05,14.74-1019.2,14.74c-0.04,1.58-0.07,3.16-0.11,4.73c7.87,0.35,15.73,0.9,23.6,1.03   C265.2,838.16,929.39,849.08,1087.52,851.75z" style="fill: #d11d28; fill-opacity: 1;"></path><path class="st0" d="M1137.46,920.94c-0.02-13.35-4.95-18.9-17.48-18.79c-13.11,0.11-26.21,0.9-39.31,1.11   c-139.23,2.24-944.44,20.43-993.78,20.43c0,1.31,0,2.62,0,3.93c59.36,1.1,875.41,9.52,1033.14,12.38   C1132.02,940.22,1137.47,934.12,1137.46,920.94z" style="fill: #d11d28; fill-opacity: 1;"></path><path class="st0" d="M1164.04,1010.36c0.14-13.01-5.25-19.08-17.36-18.91c-29.31,0.43-808.43,21.54-984.67,24.5   c-9.53,0.16-19.23-1.2-28.64,2.95c75.96,1.47,890.93,7.41,1013.57,9.32C1158.72,1028.4,1163.91,1022.67,1164.04,1010.36z" style="fill: #d11d28; fill-opacity: 1;"></path><path class="st0" d="M1188.77,1094.76c0.07-13.56-4.93-18.67-18.57-18.45c-96,1.52-834.53,21.87-956.76,23.92   c-14.83,0.25-29.67,0.03-44.5,0.03c0.06,1.42,0.11,2.83,0.17,4.25c3.04,0,6.08-0.04,9.12,0.01c136.1,2.2,794.84,5.1,991.49,8.32   C1183.58,1113.07,1188.7,1108.11,1188.77,1094.76z" style="fill: #d11d28; fill-opacity: 1;"></path><path class="st1" d="M1932.17,1184.28c0.1-0.16,0.2-0.33,0.19-0.45c-1.17-11.78-44.02-117.72-47.04-126.18   c-7.8-18.15-14.21-24.01-28.11-29.59c-8.36-3.35-17.14-3.66-25.98-3.66c-47.35,0.01-61.35-0.05-108.7,0   c-2.36,0-3.61-0.63-4.53-2.82c-1.17-2.8-2.88-5.37-4.18-8.12c-12.88-27.21-25.72-54.44-38.58-81.65   c-5.31-11.24-13.28-20.13-24.02-26.39c-9.22-5.37-19.41-6.62-29.89-6.57c-20.68,0.11-41.36-0.17-62.03,0.3   c-6.28,0.14-9.68-1.89-12.59-7.37c-8.4-15.84-17.49-31.31-26.09-47.04c-6.71-12.27-16.03-21.23-29.71-25.27   c-10.09-2.98-20.37-4.61-30.88-4.62c-89.3-0.02-178.6-0.01-267.9-0.01c-0.82,0-1.65,0.03-2.47,0c-1.49-0.04-1.86,0.67-1.4,1.99   c2.8,7.97,4.38,16.27,6.6,24.4c10.83,39.52,21.52,79.08,32.41,118.58c11.39,41.31,22.75,82.63,33.62,124.08   c3.03,11.55,4.53,23.17,2.61,35.14c-3.2,19.92-14.92,32.9-34,36.97c-7.4,1.58-14.96,1.55-22.49,1.55c0,0-978.71,26.85-983.41,26.84   c-1.79,0-2.85,0.44-2.77,2.59c0.15,4.13,1559.84,16.17,1692.43,19.54c13.9,0.35,19.02-4.56,19.09-17.91   C1932.36,1187.05,1932.3,1185.62,1932.17,1184.28z M1569.69,1170.46c12.42-12.64,27.48-21.1,45.27-25.37   c30.84-7.41,65.18,2.59,86.68,25.26C1661.6,1170.39,1617.26,1170.43,1569.69,1170.46z M1913.75,1169.99   c-17.76,0.12-85.01,0.23-182.93,0.33c-8.83-13.02-19.75-24.17-33.6-32.74c-32.18-19.92-66.48-23.22-101.71-10.74   c-23.65,8.38-41.75,23.53-55.13,43.64c-83.89,0.06-176.65,0.11-272.8,0.16c11.35-9.2,19.43-21.97,23.86-38.62   c5.13-19.26,2.86-38.34-1.68-57.37c-5.84-24.5-13.39-48.53-19.77-72.88c-8.75-33.4-18.25-66.61-27.33-99.93   c-4.68-17.17-9.13-34.4-13.77-51.58c-1.36-5.03-1.49-5.02,3.78-5.02c74.96,0,149.92,0,224.89,0.03c7.77,0,15.48,0.69,23.04,2.63   c5.45,1.4,9.65,4.12,12.41,9.41c6.5,12.46,14.31,24.21,20.52,36.84c2.33,4.73,2.46,4.7-2.65,4.7   c-39.12-0.02-210.55-0.25-214.42,0.71c5.33,1.01,303.38,26.22,330.07,29.42c5.12,0.62,10.03,1.85,13.75,5.62   c5.84,5.92,9.53,13.2,12.64,20.82c-0.43,0.19-0.65,0.36-0.86,0.36c-34.66-0.05-230.43-5.5-265.08-5.55l21.02,59.6   c29.9,1.77,240.66,31.76,270.55,33.64c40.79,2.56,81.57,5.52,122.38,7.69c22.17,1.18,46.9-4.74,58.92,17.4   c26.09,48.59,40.51,72.42,56.48,101.48C1915.5,1170,1914.64,1169.98,1913.75,1169.99z" style="fill: #494b4a; fill-opacity: 1;"></path></svg> <svg y="309.225" viewBox="0.8799999952316284 17.860000610351562 403.0400085449219 63.720001220703125" x="85.97999084472656" height="63.720001220703125" width="403.0400085449219" style="overflow: visible;"><g fill="#494b4a" fill-opacity="1" style=""><path d="M28.42 24.82L28.42 80.70L20.50 80.70L20.50 24.82L0.88 24.82L0.88 17.86L47.96 17.86L47.96 24.82L28.42 24.82ZM94.78 57.02L94.78 57.02Q94.78 64.86 92.09 70.36Q89.41 75.86 84.48 78.72Q79.55 81.58 72.78 81.58L72.78 81.58Q66.53 81.58 61.64 78.72Q56.76 75.86 53.94 70.36Q51.13 64.86 51.13 57.02L51.13 57.02Q51.13 45.32 57.02 38.98Q62.92 32.65 73.04 32.65L73.04 32.65Q79.46 32.65 84.35 35.51Q89.23 38.37 92.00 43.78Q94.78 49.19 94.78 57.02ZM59.14 57.02L59.14 57.02Q59.14 62.57 60.59 66.66Q62.04 70.75 65.12 72.95Q68.20 75.15 72.95 75.15L72.95 75.15Q77.70 75.15 80.78 72.95Q83.86 70.75 85.32 66.66Q86.77 62.57 86.77 57.02L86.77 57.02Q86.77 51.39 85.27 47.43Q83.78 43.47 80.74 41.32Q77.70 39.16 72.86 39.16L72.86 39.16Q65.65 39.16 62.39 43.91Q59.14 48.66 59.14 57.02ZM147.31 80.61L139.22 54.03Q138.69 52.18 138.16 50.38Q137.63 48.58 137.24 46.95Q136.84 45.32 136.49 43.91Q136.14 42.50 135.96 41.54L135.96 41.54L135.61 41.54Q135.43 42.50 135.12 43.91Q134.82 45.32 134.42 46.99Q134.02 48.66 133.54 50.47Q133.06 52.27 132.44 54.12L132.44 54.12L123.99 80.61L115.19 80.61L102.26 33.44L110.26 33.44L116.78 58.61Q117.48 61.16 118.10 63.76Q118.71 66.35 119.20 68.68Q119.68 71.02 119.86 72.69L119.86 72.69L120.21 72.69Q120.47 71.63 120.82 70.05Q121.18 68.46 121.57 66.70Q121.97 64.94 122.45 63.18Q122.94 61.42 123.38 60.02L123.38 60.02L131.74 33.44L140.18 33.44L148.28 60.02Q148.90 62.04 149.56 64.33Q150.22 66.62 150.74 68.77Q151.27 70.93 151.45 72.60L151.45 72.60L151.80 72.60Q151.98 71.10 152.46 68.86Q152.94 66.62 153.60 63.93Q154.26 61.25 154.97 58.61L154.97 58.61L161.57 33.44L169.49 33.44L156.38 80.61L147.31 80.61ZM202.40 24.82L202.40 80.70L194.48 80.70L194.48 24.82L174.86 24.82L174.86 17.86L221.94 17.86L221.94 24.82L202.40 24.82ZM251.50 32.65L251.50 32.65Q252.82 32.65 254.36 32.78Q255.90 32.91 257.05 33.18L257.05 33.18L256.08 40.30Q254.94 40.04 253.57 39.86Q252.21 39.69 250.98 39.69L250.98 39.69Q247.37 39.69 244.20 41.67Q241.03 43.65 239.14 47.21Q237.25 50.78 237.25 55.53L237.25 55.53L237.25 80.70L229.50 80.70L229.50 33.53L235.84 33.53L236.72 42.15L237.07 42.15Q239.36 38.28 242.97 35.46Q246.58 32.65 251.50 32.65ZM285.47 32.74L285.47 32.74Q294.10 32.74 298.23 36.52Q302.37 40.30 302.37 48.58L302.37 48.58L302.37 80.70L296.74 80.70L295.24 74.01L294.89 74.01Q292.86 76.56 290.71 78.28Q288.55 79.99 285.78 80.78Q283.01 81.58 279.05 81.58L279.05 81.58Q274.82 81.58 271.44 80.08Q268.05 78.58 266.11 75.46Q264.18 72.34 264.18 67.58L264.18 67.58Q264.18 60.54 269.72 56.72Q275.26 52.89 286.79 52.54L286.79 52.54L294.80 52.27L294.80 49.46Q294.80 43.56 292.25 41.27Q289.70 38.98 285.03 38.98L285.03 38.98Q281.34 38.98 277.99 40.08Q274.65 41.18 271.74 42.59L271.74 42.59L269.37 36.78Q272.45 35.11 276.67 33.92Q280.90 32.74 285.47 32.74ZM294.71 57.64L287.76 57.90Q278.96 58.26 275.57 60.72Q272.18 63.18 272.18 67.67L272.18 67.67Q272.18 71.63 274.60 73.48Q277.02 75.33 280.81 75.33L280.81 75.33Q286.79 75.33 290.75 72.03Q294.71 68.73 294.71 61.86L294.71 61.86L294.71 57.64ZM339.42 81.58L339.42 81.58Q333.17 81.58 328.28 79.02Q323.40 76.47 320.63 71.10Q317.86 65.74 317.86 57.38L317.86 57.38Q317.86 48.66 320.76 43.21Q323.66 37.75 328.64 35.20Q333.61 32.65 339.94 32.65L339.94 32.65Q343.55 32.65 346.90 33.40Q350.24 34.14 352.35 35.20L352.35 35.20L349.98 41.62Q347.86 40.83 345.05 40.13Q342.23 39.42 339.77 39.42L339.77 39.42Q335.02 39.42 331.94 41.45Q328.86 43.47 327.36 47.43Q325.86 51.39 325.86 57.29L325.86 57.29Q325.86 62.92 327.36 66.88Q328.86 70.84 331.85 72.86Q334.84 74.89 339.33 74.89L339.33 74.89Q343.20 74.89 346.15 74.10Q349.10 73.30 351.56 72.16L351.56 72.16L351.56 79.02Q349.18 80.26 346.32 80.92Q343.46 81.58 339.42 81.58ZM384.47 32.65L384.47 32.65Q390.54 32.65 394.90 35.29Q399.26 37.93 401.59 42.72Q403.92 47.52 403.92 53.94L403.92 53.94L403.92 58.61L371.62 58.61Q371.80 66.62 375.72 70.80Q379.63 74.98 386.67 74.98L386.67 74.98Q391.16 74.98 394.64 74.14Q398.11 73.30 401.81 71.72L401.81 71.72L401.81 78.50Q398.20 80.08 394.68 80.83Q391.16 81.58 386.32 81.58L386.32 81.58Q379.63 81.58 374.48 78.85Q369.34 76.12 366.48 70.71Q363.62 65.30 363.62 57.46L363.62 57.46Q363.62 49.72 366.21 44.18Q368.81 38.63 373.52 35.64Q378.22 32.65 384.47 32.65ZM384.38 38.98L384.38 38.98Q378.84 38.98 375.63 42.55Q372.42 46.11 371.80 52.45L371.80 52.45L395.82 52.45Q395.82 48.40 394.59 45.41Q393.36 42.42 390.85 40.70Q388.34 38.98 384.38 38.98Z" transform="translate(0, 0)"></path></g></svg></svg>